<svg width="20" height="20" viewBox="0 0 20 20" fill="none" xmlns="http://www.w3.org/2000/svg">
<path fill-rule="evenodd" clip-rule="evenodd" d="M0.0426034 7.73299C0.00387896 4.19435 -0.0118649 2.75569 1.30459 1.38854C2.6862 -0.0437283 4.19499 -0.0311322 9.47841 0.0129766C10.5724 0.0221101 11.8283 0.0325948 13.2784 0.0318823C15.6175 0.0359594 15.7504 0.0552434 16.1937 0.119586L16.2191 0.123268C18.2458 0.41487 19.7838 1.8546 19.98 4.35275C20.0065 4.68672 20.0065 15.3132 19.9808 15.6405C19.7963 17.9858 18.4469 19.3308 16.7883 19.7587C15.5461 20.0802 4.52448 20.0802 3.28057 19.7603C-0.14412 18.8754 -0.0619938 15.5196 0.0284477 11.824C0.0432057 11.221 0.0581852 10.6089 0.0581852 9.99704C0.0581852 9.15687 0.0499776 8.40685 0.0426034 7.73299ZM9.29953 2.63691C9.54059 2.63865 9.7835 2.64041 10.0274 2.64041H10.0241C10.3142 2.64041 10.5947 2.63851 10.8662 2.63668C13.2184 2.6208 14.885 2.60955 16.1514 3.87576C17.413 5.1363 17.404 6.77521 17.3907 9.20401C17.3893 9.46121 17.3879 9.72728 17.3879 10.0027C17.3879 10.2574 17.3888 10.5027 17.3897 10.7391C17.3963 12.5139 17.4011 13.7908 17.0015 14.8245C15.9908 17.4169 13.4223 17.3936 10.7855 17.3696C10.5324 17.3673 10.2788 17.365 10.0257 17.365C9.78339 17.365 9.54174 17.3667 9.30168 17.3685C6.57532 17.3884 4.05434 17.4068 3.05084 14.8245C2.65197 13.7979 2.65728 12.2712 2.66306 10.6099C2.66375 10.4092 2.66446 10.2066 2.66446 10.0027C2.66446 9.75164 2.66357 9.5094 2.66271 9.2755C2.65619 7.50004 2.65143 6.20482 3.05084 5.18007C4.05672 2.59906 6.55862 2.61712 9.29953 2.63691ZM10.5516 3.95928C10.1804 3.96277 9.78617 3.96648 9.36764 3.96715V3.96548C4.45845 3.97047 3.99313 4.06352 3.99313 9.99937C3.99313 15.8671 4.16181 16.0349 10.0282 16.0349C10.3243 16.0349 10.6152 16.0381 10.8996 16.0412C13.7065 16.072 15.8775 16.0959 16.0201 12.9752C16.4328 3.90389 15.7622 3.91021 10.5516 3.95928ZM13.0745 6.07232C13.0745 5.58466 13.47 5.18921 13.9577 5.18921C14.4455 5.18921 14.841 5.58466 14.841 6.07232C14.841 6.55998 14.4455 6.95543 13.9577 6.95543C13.47 6.95543 13.0745 6.55998 13.0745 6.07232ZM6.24663 10.0027C6.24663 7.91497 7.93926 6.22186 10.0274 6.22186C12.1156 6.22186 13.8073 7.91497 13.8073 10.0027C13.8073 12.0904 12.1156 13.7827 10.0274 13.7827C7.93926 13.7827 6.24663 12.0904 6.24663 10.0027ZM10.0274 7.5486C13.2722 7.5486 13.2764 12.4568 10.0274 12.4568C6.78342 12.4568 6.77843 7.5486 10.0274 7.5486Z" fill="white" fill-opacity="0.3"/>
</svg>
