<svg width="119" height="30" viewBox="0 0 119 30" fill="none" xmlns="http://www.w3.org/2000/svg">
<path d="M23.0577 9.35056C24.4101 6.82702 23.3287 2.65747 22.2761 0.00012207C19.072 0.670522 16.3351 1.95055 13.8306 3.60911C14.2066 5.68571 14.4698 7.77676 14.5363 9.88661C14.5886 11.4393 14.5166 12.9936 14.3211 14.5353C14.9858 14.2498 15.6558 13.9773 16.3312 13.7177C18.8944 12.7336 21.7769 11.7397 23.0577 9.35056Z" fill="url(#paint0_linear)"/>
<path d="M14.5364 9.88669C14.4694 7.77684 14.2068 5.6858 13.8307 3.60919C10.2592 5.97439 7.16012 9.11001 3.85762 12.3495C2.69611 13.4883 0.544282 16.3514 0.120977 17.907C-0.302328 19.4625 0.400586 21.4369 1.98902 21.8468C5.75628 18.8919 9.90224 16.4338 14.321 14.5353C14.5166 12.9937 14.5886 11.4394 14.5364 9.88669Z" fill="#4CBADF"/>
<path d="M19.8599 21.9032C22.6802 21.3704 23.536 16.3623 22.6268 13.6908C19.8416 14.2612 16.7842 15.5336 13.9411 16.7259C13.36 19.3693 12.3366 21.8956 10.7573 24.1022C13.7469 23.2631 17.2978 22.3872 19.8599 21.9032Z" fill="url(#paint1_linear)"/>
<path d="M2.7698 23.6666C2.02325 24.864 3.08137 26.9946 3.15197 27.1336C3.14252 27.0913 3.22312 26.8433 5.46833 25.8187C6.35552 25.414 8.37865 24.7697 10.7573 24.1018C12.3365 21.8944 13.3599 19.3689 13.9411 16.7255C12.9683 17.1326 12.0219 17.5305 11.1194 17.8869C8.0921 19.0839 4.46441 20.9476 2.7698 23.6666Z" fill="#4CBADF"/>
<path d="M4.2571 28.1052C3.62478 28.8375 3.67342 30.145 3.7329 29.8251C3.96412 29.678 4.22557 29.5827 4.49863 29.546C6.39864 28.6819 8.13327 27.4116 9.54605 25.8771C8.37592 26.1548 7.3781 26.4074 6.72244 26.6129C5.78995 26.9039 4.88969 27.3727 4.2571 28.1052Z" fill="#4CBADF"/>
<path d="M4.49854 29.546C5.01745 29.468 5.58251 29.5506 6.11226 29.6345C7.76129 29.8959 9.43589 30.0954 11.0999 29.952C12.764 29.8087 15.2916 29.2999 16.5923 28.2722C17.8931 27.2445 20.1327 24.9564 20.0652 23.3199C18.0532 23.9969 13.0358 25.0488 9.54595 25.877C8.13318 27.4116 6.39854 28.6818 4.49854 29.546Z" fill="url(#paint2_linear)"/>
<path d="M38.9924 20.6217H36.4471V16.489C36.4471 15.4254 36.0666 14.8937 35.3056 14.8937C34.8737 14.8937 34.5394 15.0507 34.3029 15.3647C34.0664 15.6787 33.9481 16.0636 33.9481 16.5194V20.6217H31.4028V13.0552H33.8556V14.1036H33.8864C34.0715 13.7491 34.3698 13.4503 34.7811 13.2072C35.2028 12.9641 35.6707 12.8425 36.1849 12.8425C37.1413 12.8425 37.8457 13.1464 38.2982 13.7541C38.761 14.3518 38.9924 15.0811 38.9924 15.942V20.6217Z" fill="#262626"/>
<path d="M42.9447 15.9724H46.1995C46.1995 15.5571 46.0659 15.2127 45.7985 14.9392C45.5414 14.6658 45.1712 14.529 44.6878 14.529C44.2147 14.529 43.8137 14.6708 43.4846 14.9544C43.1555 15.2381 42.9755 15.5774 42.9447 15.9724ZM48.5289 16.9296C48.5289 17.2031 48.5237 17.4006 48.5134 17.5222H42.9447C42.9858 17.9273 43.1864 18.2667 43.5463 18.5401C43.9062 18.8136 44.3176 18.9504 44.7804 18.9504C45.5208 18.9504 46.0864 18.687 46.4772 18.1603L48.2358 19.2543C47.485 20.3279 46.323 20.8648 44.7495 20.8648C43.5463 20.8648 42.5385 20.5103 41.726 19.8012C40.9239 19.0821 40.5228 18.1046 40.5228 16.8688C40.5228 15.6533 40.9136 14.6759 41.6952 13.9365C42.487 13.1869 43.4794 12.8121 44.6724 12.8121C45.8242 12.8121 46.7549 13.1818 47.4645 13.9213C48.1741 14.6506 48.5289 15.6533 48.5289 16.9296Z" fill="#262626"/>
<path d="M62.5464 13.0552L59.8778 20.6217H57.3325L55.8207 15.9116H55.7899L54.309 20.6217H51.7637L49.1105 13.0552H51.8409L53.1675 17.8412H53.2138L54.5867 13.0552H57.132L58.5511 17.8412H58.582L59.924 13.0552H62.5464Z" fill="#262626"/>
<path d="M75.953 16.8081C75.953 17.9223 75.6188 18.8744 74.9503 19.6645C74.2922 20.4444 73.4077 20.8344 72.2971 20.8344C71.7829 20.8344 71.2944 20.728 70.8316 20.5153C70.3791 20.3026 70.0295 20.0089 69.7827 19.6341H69.7518V20.6217H67.4225V9.13525H69.9523V13.8605H69.9832C70.5694 13.1818 71.351 12.8425 72.3279 12.8425C73.4077 12.8425 74.2819 13.2325 74.9503 14.0124C75.6188 14.7822 75.953 15.7141 75.953 16.8081ZM73.5157 16.8081C73.5157 16.2814 73.3512 15.8306 73.0221 15.4558C72.7033 15.0709 72.2611 14.8785 71.6955 14.8785C71.1504 14.8785 70.7031 15.076 70.3534 15.471C70.014 15.8661 69.8444 16.3168 69.8444 16.8233C69.8444 17.3398 70.014 17.7957 70.3534 18.1907C70.7031 18.5756 71.1504 18.7681 71.6955 18.7681C72.2611 18.7681 72.7033 18.5756 73.0221 18.1907C73.3512 17.8058 73.5157 17.3449 73.5157 16.8081Z" fill="#262626"/>
<path d="M82.6506 12.9033L82.5427 15.0912C82.3473 15.0405 82.1313 15.0152 81.8948 15.0152C81.288 15.0152 80.8355 15.2026 80.5373 15.5774C80.2391 15.942 80.0899 16.3269 80.0899 16.7321V20.6217H77.5601V13.0552H79.9974V14.1492H80.0282C80.2236 13.7541 80.5064 13.4401 80.8767 13.2072C81.2469 12.9641 81.6582 12.8425 82.1107 12.8425C82.3576 12.8425 82.5375 12.8628 82.6506 12.9033Z" fill="#262626"/>
<path d="M85.4413 15.9724H88.6962C88.6962 15.5571 88.5625 15.2127 88.2951 14.9392C88.038 14.6658 87.6678 14.529 87.1844 14.529C86.7114 14.529 86.3103 14.6708 85.9812 14.9544C85.6521 15.2381 85.4721 15.5774 85.4413 15.9724ZM91.0255 16.9296C91.0255 17.2031 91.0203 17.4006 91.0101 17.5222H85.4413C85.4824 17.9273 85.683 18.2667 86.0429 18.5401C86.4028 18.8136 86.8142 18.9504 87.277 18.9504C88.0174 18.9504 88.583 18.687 88.9738 18.1603L90.7324 19.2543C89.9817 20.3279 88.8196 20.8648 87.2461 20.8648C86.0429 20.8648 85.0351 20.5103 84.2226 19.8012C83.4205 19.0821 83.0194 18.1046 83.0194 16.8688C83.0194 15.6533 83.4102 14.6759 84.1918 13.9365C84.9837 13.1869 85.9761 12.8121 87.169 12.8121C88.3208 12.8121 89.2515 13.1818 89.9611 13.9213C90.6707 14.6506 91.0255 15.6533 91.0255 16.9296Z" fill="#262626"/>
<path d="M94.6306 15.9724H97.8854C97.8854 15.5571 97.7517 15.2127 97.4844 14.9392C97.2273 14.6658 96.857 14.529 96.3737 14.529C95.9006 14.529 95.4996 14.6708 95.1705 14.9544C94.8414 15.2381 94.6614 15.5774 94.6306 15.9724ZM100.215 16.9296C100.215 17.2031 100.21 17.4006 100.199 17.5222H94.6306C94.6717 17.9273 94.8722 18.2667 95.2322 18.5401C95.5921 18.8136 96.0035 18.9504 96.4663 18.9504C97.2067 18.9504 97.7723 18.687 98.1631 18.1603L99.9217 19.2543C99.1709 20.3279 98.0088 20.8648 96.4354 20.8648C95.2322 20.8648 94.2243 20.5103 93.4119 19.8012C92.6098 19.0821 92.2087 18.1046 92.2087 16.8688C92.2087 15.6533 92.5995 14.6759 93.3811 13.9365C94.1729 13.1869 95.1653 12.8121 96.3583 12.8121C97.5101 12.8121 98.4408 13.1818 99.1504 13.9213C99.86 14.6506 100.215 15.6533 100.215 16.9296Z" fill="#262626"/>
<path d="M108.17 20.6217H101.321V18.6769L104.931 14.9696H101.46V13.0552H108.016V14.924L104.298 18.6921H108.17V20.6217Z" fill="#262626"/>
<path d="M111.714 15.9724H114.968C114.968 15.5571 114.835 15.2127 114.567 14.9392C114.31 14.6658 113.94 14.529 113.457 14.529C112.984 14.529 112.583 14.6708 112.253 14.9544C111.924 15.2381 111.744 15.5774 111.714 15.9724ZM117.298 16.9296C117.298 17.2031 117.293 17.4006 117.282 17.5222H111.714C111.755 17.9273 111.955 18.2667 112.315 18.5401C112.675 18.8136 113.086 18.9504 113.549 18.9504C114.29 18.9504 114.855 18.687 115.246 18.1603L117.005 19.2543C116.254 20.3279 115.092 20.8648 113.518 20.8648C112.315 20.8648 111.307 20.5103 110.495 19.8012C109.693 19.0821 109.292 18.1046 109.292 16.8688C109.292 15.6533 109.682 14.6759 110.464 13.9365C111.256 13.1869 112.248 12.8121 113.441 12.8121C114.593 12.8121 115.524 13.1818 116.233 13.9213C116.943 14.6506 117.298 15.6533 117.298 16.9296Z" fill="#262626"/>
<defs>
<linearGradient id="paint0_linear" x1="30.9115" y1="3.77752" x2="0.967848" y2="12.3399" gradientUnits="userSpaceOnUse">
<stop stop-color="#C1F4FF"/>
<stop offset="1" stop-color="#4CBADF"/>
</linearGradient>
<linearGradient id="paint1_linear" x1="31.9231" y1="16.3965" x2="-0.324208" y2="32.3487" gradientUnits="userSpaceOnUse">
<stop stop-color="#C1F4FF"/>
<stop offset="1" stop-color="#4CBADF"/>
</linearGradient>
<linearGradient id="paint2_linear" x1="31.4694" y1="25.0559" x2="5.44342" y2="50.6255" gradientUnits="userSpaceOnUse">
<stop stop-color="#C1F4FF"/>
<stop offset="1" stop-color="#4CBADF"/>
</linearGradient>
</defs>
</svg>
