<svg width="216" height="56" viewBox="0 0 216 56" fill="none" xmlns="http://www.w3.org/2000/svg">
<path d="M41.8519 17.2316C44.3068 12.5811 42.3438 4.89714 40.4332 0C34.6174 1.23546 29.6496 3.59438 25.1035 6.65089C25.7861 10.4778 26.2639 14.3313 26.3844 18.2195C26.4794 21.0809 26.3488 23.9453 25.994 26.7864C27.2004 26.2604 28.4166 25.7582 29.6425 25.2797C34.295 23.4662 39.5271 21.6346 41.8519 17.2316Z" fill="url(#paint0_linear)"/>
<path d="M26.3854 18.22C26.2638 14.3318 25.7871 10.4783 25.1045 6.65137C18.6217 11.0101 12.9965 16.7887 7.00207 22.7585C4.89377 24.8573 0.98794 30.1336 0.219588 33.0003C-0.548764 35.867 0.727113 39.5056 3.61032 40.2609C10.4484 34.8154 17.9738 30.2855 25.9944 26.7868C26.3495 23.9458 26.4802 21.0814 26.3854 18.22Z" fill="#4CBADF"/>
<path d="M36.0477 40.3648C41.1669 39.383 42.7202 30.1537 41.07 25.2305C36.0144 26.2816 30.4649 28.6265 25.3044 30.8237C24.2495 35.6952 22.392 40.3508 19.5254 44.4173C24.9518 42.8709 31.3973 41.2568 36.0477 40.3648Z" fill="url(#paint1_linear)"/>
<path d="M5.02764 43.6143C3.67256 45.8211 5.59318 49.7474 5.72133 50.0036C5.70417 49.9257 5.85048 49.4687 9.92582 47.5803C11.5362 46.8345 15.2084 45.6473 19.5259 44.4164C22.3925 40.3484 24.25 35.6943 25.305 30.8228C23.5392 31.5731 21.8214 32.3063 20.1833 32.9632C14.6883 35.169 8.10357 38.6037 5.02764 43.6143Z" fill="#4CBADF"/>
<path d="M7.72667 51.7941C6.57894 53.1436 6.66722 55.5532 6.77519 54.9636C7.19487 54.6926 7.66944 54.517 8.16508 54.4494C11.6138 52.8568 14.7624 50.516 17.3268 47.688C15.2028 48.1997 13.3917 48.6653 12.2016 49.044C10.509 49.5804 8.87491 50.4442 7.72667 51.7941Z" fill="#4CBADF"/>
<path d="M8.16504 54.4498C9.10694 54.3062 10.1326 54.4584 11.0942 54.613C14.0874 55.0947 17.127 55.4623 20.1474 55.1981C23.1678 54.934 27.7557 53.9963 30.1168 52.1024C32.4779 50.2086 36.5431 45.9919 36.4205 42.9761C32.7684 44.2236 23.6612 46.1622 17.3267 47.6884C14.7624 50.5164 11.6138 52.8573 8.16504 54.4498Z" fill="url(#paint2_linear)"/>
<path d="M70.776 38.003H66.156V30.387C66.156 28.427 65.4653 27.447 64.084 27.447C63.3 27.447 62.6933 27.7363 62.264 28.315C61.8347 28.8936 61.62 29.603 61.62 30.443V38.003H57V24.059H61.452V25.991H61.508C61.844 25.3376 62.3853 24.787 63.132 24.339C63.8973 23.891 64.7467 23.667 65.68 23.667C67.416 23.667 68.6947 24.227 69.516 25.347C70.356 26.4483 70.776 27.7923 70.776 29.379V38.003Z" fill="#262626"/>
<path d="M77.9499 29.435H83.8579C83.8579 28.6696 83.6152 28.035 83.1299 27.531C82.6632 27.027 81.9912 26.775 81.1139 26.775C80.2552 26.775 79.5272 27.0363 78.9299 27.559C78.3326 28.0816 78.0059 28.707 77.9499 29.435ZM88.0859 31.199C88.0859 31.703 88.0766 32.067 88.0579 32.291H77.9499C78.0246 33.0376 78.3886 33.663 79.0419 34.167C79.6952 34.671 80.4419 34.923 81.2819 34.923C82.6259 34.923 83.6526 34.4376 84.3619 33.467L87.5539 35.483C86.1912 37.4616 84.0819 38.451 81.2259 38.451C79.0419 38.451 77.2126 37.7976 75.7379 36.491C74.2819 35.1656 73.5539 33.3643 73.5539 31.087C73.5539 28.847 74.2632 27.0456 75.6819 25.683C77.1192 24.3016 78.9206 23.611 81.0859 23.611C83.1766 23.611 84.8659 24.2923 86.1539 25.655C87.4419 26.999 88.0859 28.847 88.0859 31.199Z" fill="#262626"/>
<path d="M113.53 24.059L108.686 38.003H104.066L101.322 29.323H101.266L98.5776 38.003H93.9576L89.1416 24.059H94.0976L96.5056 32.879H96.5896L99.0816 24.059H103.702L106.278 32.879H106.334L108.77 24.059H113.53Z" fill="#262626"/>
<path d="M137.864 30.975C137.864 33.0283 137.258 34.783 136.044 36.239C134.85 37.6763 133.244 38.395 131.228 38.395C130.295 38.395 129.408 38.199 128.568 37.807C127.747 37.415 127.112 36.8736 126.664 36.183H126.608V38.003H122.38V16.835H126.972V25.543H127.028C128.092 24.2923 129.511 23.667 131.284 23.667C133.244 23.667 134.831 24.3856 136.044 25.823C137.258 27.2416 137.864 28.959 137.864 30.975ZM133.44 30.975C133.44 30.0043 133.142 29.1736 132.544 28.483C131.966 27.7736 131.163 27.419 130.136 27.419C129.147 27.419 128.335 27.783 127.7 28.511C127.084 29.239 126.776 30.0696 126.776 31.003C126.776 31.955 127.084 32.795 127.7 33.523C128.335 34.2323 129.147 34.587 130.136 34.587C131.163 34.587 131.966 34.2323 132.544 33.523C133.142 32.8136 133.44 31.9643 133.44 30.975Z" fill="#262626"/>
<path d="M150.021 23.779L149.825 27.811C149.471 27.7176 149.079 27.671 148.649 27.671C147.548 27.671 146.727 28.0163 146.185 28.707C145.644 29.379 145.373 30.0883 145.373 30.835V38.003H140.781V24.059H145.205V26.075H145.261C145.616 25.347 146.129 24.7683 146.801 24.339C147.473 23.891 148.22 23.667 149.041 23.667C149.489 23.667 149.816 23.7043 150.021 23.779Z" fill="#262626"/>
<path d="M155.087 29.435H160.995C160.995 28.6696 160.752 28.035 160.267 27.531C159.8 27.027 159.128 26.775 158.251 26.775C157.392 26.775 156.664 27.0363 156.067 27.559C155.469 28.0816 155.143 28.707 155.087 29.435ZM165.223 31.199C165.223 31.703 165.213 32.067 165.195 32.291H155.087C155.161 33.0376 155.525 33.663 156.179 34.167C156.832 34.671 157.579 34.923 158.419 34.923C159.763 34.923 160.789 34.4376 161.499 33.467L164.691 35.483C163.328 37.4616 161.219 38.451 158.363 38.451C156.179 38.451 154.349 37.7976 152.875 36.491C151.419 35.1656 150.691 33.3643 150.691 31.087C150.691 28.847 151.4 27.0456 152.819 25.683C154.256 24.3016 156.057 23.611 158.223 23.611C160.313 23.611 162.003 24.2923 163.291 25.655C164.579 26.999 165.223 28.847 165.223 31.199Z" fill="#262626"/>
<path d="M171.766 29.435H177.674C177.674 28.6696 177.432 28.035 176.946 27.531C176.48 27.027 175.808 26.775 174.93 26.775C174.072 26.775 173.344 27.0363 172.746 27.559C172.149 28.0816 171.822 28.707 171.766 29.435ZM181.902 31.199C181.902 31.703 181.893 32.067 181.874 32.291H171.766C171.841 33.0376 172.205 33.663 172.858 34.167C173.512 34.671 174.258 34.923 175.098 34.923C176.442 34.923 177.469 34.4376 178.178 33.467L181.37 35.483C180.008 37.4616 177.898 38.451 175.042 38.451C172.858 38.451 171.029 37.7976 169.554 36.491C168.098 35.1656 167.37 33.3643 167.37 31.087C167.37 28.847 168.08 27.0456 169.498 25.683C170.936 24.3016 172.737 23.611 174.902 23.611C176.993 23.611 178.682 24.2923 179.97 25.655C181.258 26.999 181.902 28.847 181.902 31.199Z" fill="#262626"/>
<path d="M196.342 38.003H183.91V34.419L190.462 27.587H184.162V24.059H196.062V27.503L189.314 34.447H196.342V38.003Z" fill="#262626"/>
<path d="M202.774 29.435H208.682C208.682 28.6696 208.439 28.035 207.954 27.531C207.487 27.027 206.815 26.775 205.938 26.775C205.079 26.775 204.351 27.0363 203.754 27.559C203.157 28.0816 202.83 28.707 202.774 29.435ZM212.91 31.199C212.91 31.703 212.901 32.067 212.882 32.291H202.774C202.849 33.0376 203.213 33.663 203.866 34.167C204.519 34.671 205.266 34.923 206.106 34.923C207.45 34.923 208.477 34.4376 209.186 33.467L212.378 35.483C211.015 37.4616 208.906 38.451 206.05 38.451C203.866 38.451 202.037 37.7976 200.562 36.491C199.106 35.1656 198.378 33.3643 198.378 31.087C198.378 28.847 199.087 27.0456 200.506 25.683C201.943 24.3016 203.745 23.611 205.91 23.611C208.001 23.611 209.69 24.2923 210.978 25.655C212.266 26.999 212.91 28.847 212.91 31.199Z" fill="#262626"/>
<defs>
<linearGradient id="paint0_linear" x1="56.1075" y1="6.96126" x2="1.63301" y2="22.3038" gradientUnits="userSpaceOnUse">
<stop stop-color="#C1F4FF"/>
<stop offset="1" stop-color="#4CBADF"/>
</linearGradient>
<linearGradient id="paint1_linear" x1="57.944" y1="30.2167" x2="-0.934907" y2="58.9046" gradientUnits="userSpaceOnUse">
<stop stop-color="#C1F4FF"/>
<stop offset="1" stop-color="#4CBADF"/>
</linearGradient>
<linearGradient id="paint2_linear" x1="57.1205" y1="46.1753" x2="9.17644" y2="92.5696" gradientUnits="userSpaceOnUse">
<stop stop-color="#C1F4FF"/>
<stop offset="1" stop-color="#4CBADF"/>
</linearGradient>
</defs>
</svg>
